<?xml version="1.0" encoding="utf-8"?>
<!-- Generator: Adobe Illustrator 24.3.0, SVG Export Plug-In . SVG Version: 6.00 Build 0)  -->
<svg version="1.1" id="Ebene_1" xmlns="http://www.w3.org/2000/svg" xmlns:xlink="http://www.w3.org/1999/xlink" x="0px" y="0px"
	 viewBox="0 0 153 50" enable-background="new 0 0 153 50" xml:space="preserve">
<g>
	<path opacity="0.8" fill="#FFFFFF" d="M70.6,39.9l1.6-1.8c1.4,1.2,2.8,1.9,4.7,1.9c1.6,0,2.6-0.7,2.6-1.8v0c0-1-0.6-1.6-3.3-2.3
		c-3.1-0.8-4.9-1.7-4.9-4.4v0c0-2.5,2.1-4.3,5-4.3c2.2,0,3.9,0.6,5.3,1.9l-1.4,2c-1.3-1-2.7-1.5-4-1.5c-1.5,0-2.4,0.8-2.4,1.8v0
		c0,1.1,0.7,1.6,3.5,2.3c3.1,0.8,4.7,1.9,4.7,4.3v0c0,2.8-2.2,4.4-5.3,4.4C74.5,42.2,72.4,41.5,70.6,39.9L70.6,39.9z"/>
	<path opacity="0.8" fill="#FFFFFF" d="M83,36.5L83,36.5c0-3.2,2.4-5.9,5.8-5.9c2.1,0,3.4,0.8,4.4,1.9l-1.6,1.7
		c-0.8-0.8-1.6-1.4-2.9-1.4c-1.8,0-3.2,1.6-3.2,3.5v0c0,2,1.4,3.6,3.3,3.6c1.2,0,2.1-0.6,2.9-1.4l1.5,1.5c-1.1,1.2-2.4,2.1-4.6,2.1
		C85.5,42.3,83,39.7,83,36.5L83,36.5z"/>
	<path opacity="0.8" fill="#FFFFFF" d="M94.8,26.6h2.6v6c0.7-1.1,1.8-2,3.5-2c2.5,0,4,1.7,4,4.3V42h-2.6v-6.3c0-1.7-0.9-2.7-2.4-2.7
		c-1.5,0-2.5,1-2.5,2.8V42h-2.6V26.6L94.8,26.6z"/>
	<path opacity="0.8" fill="#FFFFFF" d="M113.8,42v-1.4c-0.8,0.9-1.9,1.6-3.6,1.6c-2.1,0-4-1.2-4-3.4v0c0-2.5,1.9-3.7,4.5-3.7
		c1.3,0,2.2,0.2,3.1,0.5v-0.2c0-1.5-1-2.4-2.7-2.4c-1.2,0-2.2,0.3-3.2,0.7l-0.7-2c1.2-0.5,2.4-0.9,4.2-0.9c3.3,0,4.9,1.7,4.9,4.7V42
		L113.8,42L113.8,42z M108.3,27h2.6v2.5h-2.6V27L108.3,27z M113.9,37.4c-0.7-0.2-1.6-0.4-2.6-0.4c-1.6,0-2.6,0.7-2.6,1.7v0
		c0,1,0.9,1.6,2.2,1.6c1.7,0,2.9-1,2.9-2.3L113.9,37.4L113.9,37.4z M112.4,27h2.6v2.5h-2.6V27L112.4,27z"/>
	<path opacity="0.8" fill="#FFFFFF" d="M119.2,38.9v-5.9h-1.4v-2.2h1.4v-3.1h2.6v3.1h3v2.2h-3v5.5c0,1,0.5,1.4,1.4,1.4
		c0.6,0,1.1-0.1,1.6-0.4v2.1c-0.6,0.4-1.3,0.6-2.3,0.6C120.6,42.2,119.2,41.4,119.2,38.9L119.2,38.9z"/>
	<polygon opacity="0.8" fill="#FFFFFF" points="126.4,40.3 132.9,33 126.6,33 126.6,30.9 136.1,30.9 136.1,32.6 129.7,39.9 
		136.1,39.9 136.1,42 126.4,42 	"/>
	<path opacity="0.8" fill="#FFFFFF" d="M136.7,36.5L136.7,36.5c0-3.2,2.3-5.8,5.4-5.8c3.5,0,5.3,2.8,5.3,6c0,0.2,0,0.5,0,0.7h-8.2
		c0.3,1.8,1.6,2.8,3.2,2.8c1.2,0,2.1-0.5,3-1.3l1.5,1.3c-1.1,1.3-2.5,2.1-4.6,2.1C139.2,42.3,136.7,39.9,136.7,36.5L136.7,36.5z
		 M144.9,35.7c-0.2-1.6-1.1-2.9-2.8-2.9c-1.6,0-2.7,1.2-2.9,2.9H144.9L144.9,35.7z"/>
	<path fill="#FFFFFF" d="M77.9,10h5.8c3.4,0,5.6,2,5.6,4.9v0c0,3.3-2.7,5-5.9,5h-2.9v4.7h-2.6L77.9,10L77.9,10z M83.5,17.7
		c2,0,3.2-1.1,3.2-2.6v0c0-1.7-1.2-2.6-3.2-2.6h-3v5.3L83.5,17.7L83.5,17.7z"/>
	<polygon fill="#FFFFFF" points="90.6,9.4 93.2,9.4 93.2,24.8 90.6,24.8 	"/>
	<path fill="#FFFFFF" d="M102.4,24.8v-1.4c-0.8,0.9-1.9,1.6-3.6,1.6c-2.1,0-4-1.2-4-3.4v0c0-2.5,1.9-3.6,4.5-3.6
		c1.3,0,2.2,0.2,3.1,0.5v-0.2c0-1.5-1-2.4-2.7-2.4c-1.2,0-2.2,0.3-3.2,0.7l-0.7-2c1.2-0.6,2.4-0.9,4.2-0.9c3.3,0,4.9,1.7,4.9,4.7
		v6.6L102.4,24.8L102.4,24.8z M96.8,9.7h2.6v2.5h-2.6V9.7L96.8,9.7z M102.5,20.1c-0.7-0.2-1.6-0.4-2.6-0.4c-1.6,0-2.6,0.6-2.6,1.7v0
		c0,1,0.9,1.6,2.2,1.6c1.7,0,2.9-1,2.9-2.3L102.5,20.1L102.5,20.1z M100.9,9.7h2.6v2.5h-2.6V9.7L100.9,9.7z"/>
	<path fill="#FFFFFF" d="M107.8,21.7v-5.9h-1.4v-2.2h1.4v-3h2.6v3.1h3v2.2h-3v5.5c0,1,0.5,1.4,1.4,1.4c0.6,0,1.1-0.1,1.6-0.4v2.1
		c-0.6,0.4-1.3,0.6-2.3,0.6C109.1,25,107.8,24.2,107.8,21.7L107.8,21.7z"/>
	<polygon fill="#FFFFFF" points="115,23 121.4,15.8 115.2,15.8 115.2,13.7 124.6,13.7 124.6,15.4 118.2,22.7 124.6,22.7 124.6,24.8 
		115,24.8 	"/>
	<path fill="#FFFFFF" d="M125.2,19.3L125.2,19.3c0-3.2,2.2-5.8,5.4-5.8c3.5,0,5.3,2.8,5.3,6c0,0.2,0,0.5,0,0.7h-8.2
		c0.3,1.8,1.6,2.8,3.2,2.8c1.2,0,2.1-0.5,3-1.3l1.5,1.3c-1.1,1.3-2.5,2.1-4.6,2.1C127.7,25,125.2,22.7,125.2,19.3L125.2,19.3z
		 M133.5,18.5c-0.2-1.6-1.1-2.9-2.8-2.9c-1.6,0-2.7,1.2-2.9,2.9H133.5L133.5,18.5z"/>
	<path opacity="0.8" fill="#FFFFFF" d="M69.8,5.1c-1.5-0.8-3.2-1.2-4.9-1.2c-1,0-2.1,0.2-3.1,0.5c-2.7,0.8-4.8,2.6-6.2,5.1
		C53,14.5,55,20.8,60,23.5c0.4,0.2,0.7,0.4,1.1,0.5l1.6-3c-0.4-0.1-0.8-0.3-1.1-0.5c-3.5-1.8-4.8-6.1-2.9-9.6
		c0.9-1.7,2.4-2.9,4.2-3.4c0.7-0.2,1.4-0.3,2.1-0.3c1.2,0,2.3,0.3,3.3,0.8c3.4,1.8,4.8,6.1,2.9,9.6L56.4,45.5l3,1.6l14.8-27.9
		C76.8,14.1,74.9,7.8,69.8,5.1L69.8,5.1z"/>
	<path fill="#FFFFFF" d="M67.7,9.2c-0.8-0.5-1.8-0.7-2.7-0.7c-0.6,0-1.2,0.1-1.7,0.3c-1.5,0.4-2.7,1.5-3.4,2.8
		c-1.5,2.8-0.4,6.4,2.4,7.9c0.4,0.2,0.8,0.4,1.2,0.5l1.7-3.1c0,0-0.1,0-0.1,0c-0.4,0-0.8-0.1-1.1-0.3c-1.2-0.6-1.7-2.1-1-3.3
		c0.3-0.6,0.8-1,1.4-1.2c0.6-0.2,1.3-0.1,1.9,0.2c1.2,0.6,1.7,2.1,1,3.3l-8.2,15.4l3,1.6L70.1,17C71.6,14.2,70.5,10.7,67.7,9.2
		L67.7,9.2z"/>
</g>
</svg>
